<svg xmlns="http://www.w3.org/2000/svg" width="360pt" height="420pt" viewBox="0 0 250 420">
    <path
            style="fill:none;stroke-width:3;stroke:#000000;stroke-opacity:1"
            d="M 293.582031 13.375 L 292.742188 15.703125 L 290.289062 22.554688 L 288.578125 27.464844 L 288.472656 27.738281 L 288.398438 27.949219 L 286.652344 32.667969 L 285.742188 34.917969 L 284.800781 37.6875 L 283.703125 40.609375 L 283.121094 42.097656 L 282.921875 42.671875 L 282.425781 44.085938 L 280.34375 49.277344 L 279.085938 52.558594 L 277.589844 56.457031 L 276.269531 60.054688 L 275.253906 62.453125 L 273.402344 66.984375 L 271.851562 70.816406 L 271.316406 72.214844 L 270.117188 75.332031 L 268.921875 77.996094 L 267.273438 81.859375 L 265.859375 85.175781 L 263.960938 89.882812 L 263.21875 91.492188 L 262.777344 92.355469 L 261.644531 95.0625 L 261.132812 96.234375 L 259.542969 99.535156 L 259 100.925781 L 257.808594 103.632812 L 256.234375 106.714844 L 254.671875 110.238281 L 254.503906 110.570312 L 252.863281 113.898438 L 252.429688 114.804688 L 251.652344 116.433594 L 251.097656 117.488281 L 250.160156 119.332031 L 249.140625 121.078125 L 245.5 128.257812 L 243.0625 132.59375 L 241.269531 135.4375 L 240.5625 136.859375 L 239.347656 138.929688 L 239.28125 139.027344 L 237.992188 141.039062 L 236.8125 142.617188 L 235.335938 145.117188 L 234.566406 146.207031 L 233.191406 148.265625 L 232.566406 149.066406 L 231.996094 149.796875 L 230.113281 152.339844 L 229.660156 152.855469 L 229.191406 153.386719 L 227.039062 155.984375 L 226.585938 156.449219 L 226.039062 156.976562 L 223.960938 159.175781 L 223.28125 159.773438 L 222.328125 160.566406 L 220.882812 161.878906 L 219.6875 162.761719 L 218.011719 163.914062 L 217.804688 164.054688 L 217.746094 164.085938 L 217.613281 164.15625 L 215.679688 165.265625 L 214.730469 165.777344 L 213.476562 166.285156 L 212.628906 166.605469 L 211.652344 166.960938 L 211.09375 167.097656 L 208.660156 167.648438 L 208.574219 167.664062 L 207.699219 167.746094 L 205.671875 167.953125 L 205.496094 167.96875 L 205.3125 167.964844 L 202.546875 167.894531 L 202.421875 167.890625 L 201.296875 167.746094 L 199.523438 167.535156 L 199.105469 167.46875 L 196.265625 166.921875 L 194.3125 166.4375 L 191.394531 165.65625 L 190.113281 165.335938 L 189.332031 165.0625 L 186.214844 164.15625 L 183.957031 163.5625 L 183.292969 163.382812 L 180.878906 162.796875 L 179.421875 162.457031 L 179.285156 162.429688 L 178.933594 162.363281 L 177.804688 162.15625 L 176.597656 161.972656 L 175.847656 161.875 L 174.726562 161.746094 L 173.777344 161.675781 L 173.1875 161.632812 L 172.542969 161.613281 L 171.648438 161.585938 L 170.980469 161.582031 L 170.773438 161.585938 L 170.109375 161.617188 L 169.496094 161.648438 L 169.160156 161.671875 L 168.570312 161.730469 L 167.445312 161.882812 L 166.722656 162 L 165.496094 162.269531 L 164.164062 162.601562 L 163.589844 162.789062 L 162.417969 163.21875 L 160.402344 164.15625 L 159.648438 164.515625 L 159.339844 164.6875 L 158.222656 165.460938 L 156.261719 166.816406 L 155.8125 167.222656 L 155.230469 167.746094 L 154.082031 168.792969 L 153.1875 169.738281 L 152.492188 170.527344 L 151.878906 171.335938 L 151.019531 172.398438 L 150.109375 173.695312 L 149.652344 174.390625 L 149.351562 174.925781 L 148.382812 176.5 L 147.777344 177.648438 L 147.320312 178.515625 L 147.214844 178.730469 L 147.03125 179.097656 L 146.480469 180.3125 L 146.148438 181.078125 L 145.703125 182.105469 L 145.492188 182.625 L 145.160156 183.511719 L 145.011719 183.902344 L 144.675781 184.855469 L 144.398438 185.695312 L 144.261719 186.054688 L 143.953125 187.015625 L 143.46875 188.71875 L 143.046875 190.347656 L 142.421875 192.875 L 142.117188 194.324219 L 141.671875 196.464844 L 141.101562 199.792969 L 141.058594 200.058594 L 141.03125 200.238281 L 140.878906 201.410156 L 140.621094 203.648438 L 140.375 206.652344 L 140.363281 207.238281 L 140.292969 207.917969 L 140.105469 213.519531 L 140.089844 214.417969 L 140.105469 215.316406 L 140.292969 220.914062 L 140.363281 221.597656 L 140.375 222.183594 L 140.621094 225.1875 L 140.878906 227.425781 L 141.03125 228.59375 L 141.058594 228.777344 L 141.101562 229.039062 L 142.117188 234.507812 L 142.546875 235.957031 L 143.046875 238.488281 L 143.46875 240.113281 L 143.953125 241.816406 L 144.398438 243.136719 L 144.675781 243.980469 L 145.160156 245.320312 L 145.761719 246.726562 L 147.03125 249.71875 L 147.214844 250.101562 L 147.335938 250.316406 L 147.910156 251.34375 L 149.351562 253.90625 L 149.667969 254.421875 L 150.109375 255.140625 L 151.878906 257.496094 L 152.515625 258.277344 L 153.1875 259.09375 L 155.230469 261.085938 L 155.8125 261.613281 L 156.261719 262.019531 L 158.222656 263.371094 L 159.339844 264.144531 L 160.402344 264.675781 L 162.417969 265.617188 L 163.589844 266.042969 L 164.164062 266.230469 L 165.496094 266.5625 L 167.382812 266.882812 L 168.570312 267.082031 L 169.546875 267.128906 L 171.648438 267.230469 L 173.742188 267.121094 L 174.726562 267.066406 L 175.890625 266.910156 L 177.804688 266.648438 L 179.25 266.363281 L 180.878906 266.039062 L 183.292969 265.453125 L 183.957031 265.269531 L 184.382812 265.175781 L 186.214844 264.675781 L 189.332031 263.769531 L 190.113281 263.496094 L 191.394531 263.179688 L 194.3125 262.394531 L 196.265625 261.910156 L 199.105469 261.363281 L 199.523438 261.296875 L 201.296875 261.085938 L 202.421875 260.941406 L 202.546875 260.9375 L 205.3125 260.871094 L 205.496094 260.867188 L 205.671875 260.882812 L 207.699219 261.085938 L 208.574219 261.167969 L 208.660156 261.1875 L 211.09375 261.734375 L 211.652344 261.871094 L 212.628906 262.230469 L 213.476562 262.546875 L 214.730469 263.054688 L 215.679688 263.566406 L 216.265625 263.863281 L 217.625 264.675781 L 217.746094 264.746094 L 217.804688 264.78125 L 218.011719 264.917969 L 219.6875 266.074219 L 220.882812 266.953125 L 222.328125 268.265625 L 223.28125 269.058594 L 223.960938 269.65625 L 226.039062 271.855469 L 226.578125 272.390625 L 227.039062 272.847656 L 229.191406 275.445312 L 229.660156 275.976562 L 230.113281 276.496094 L 231.996094 279.035156 L 232.566406 279.765625 L 233.191406 280.566406 L 234.566406 282.625 L 235.347656 283.699219 L 236.269531 285.042969 L 236.984375 286.214844 L 237.992188 287.792969 L 239.28125 289.808594 L 239.347656 289.902344 L 240.5625 291.976562 L 241.269531 293.398438 L 243.0625 296.242188 L 245.5 300.578125 L 249.140625 307.757812 L 250.160156 309.5 L 251.652344 312.351562 L 252.429688 314.03125 L 252.804688 314.9375 L 254.503906 318.261719 L 254.671875 318.597656 L 256.234375 322.117188 L 257.808594 325.203125 L 259 327.910156 L 259.542969 329.296875 L 261.132812 332.597656 L 261.644531 333.773438 L 262.777344 336.476562 L 263.203125 337.363281 L 263.960938 338.953125 L 265.859375 343.65625 L 267.273438 346.972656 L 268.921875 350.835938 L 270.117188 353.5 L 271.34375 356.585938 L 271.851562 358.015625 L 273.402344 361.847656 L 275.253906 366.382812 L 276.269531 368.777344 L 277.589844 372.375 L 279.085938 376.273438 L 280.34375 379.558594 L 281.035156 381.175781 L 282.425781 384.75 L 282.929688 386.148438 L 283.121094 386.738281 L 283.703125 388.226562 L 284.800781 391.148438 L 285.742188 393.917969 L 286.617188 396.207031 L 288.472656 401.097656 L 288.578125 401.367188 L 290.324219 406.242188 L 290.984375 408.277344 L 292.144531 411.296875 L 292.828125 413.234375 L 293.582031 415.457031 "
            transform="matrix(1,0,0,1,-66,-5)"
            id="elliptic-curve" />
    <line id="blue-dashed-vertical" x1="171.69531" y1="5" x2="171.69531" y2="415"
          stroke="blue" stroke-width="1.5" stroke-linecap="round" stroke-dasharray="5,5" />
    <line id="red-dashed-vertical" x1="202.38281" y1="5" x2="202.38281" y2="415"
          stroke="red" stroke-width="1.5" stroke-linecap="round" stroke-dasharray="5,5" />
    <line id="red-slanted-down" x1="0" y1="131.55078" x2="273.19922" y2="418.83203"
          stroke="red" stroke-width="1.5" />
    <line id="blue-slanted-down" x1="0" y1="203.76953" x2="359" y2="367.89453"
          stroke="blue" stroke-width="1.5" />
    <line id="blue-slanted-up" x1="0" y1="264.66016" x2="354.22614" y2="0.39082637"
          stroke="blue" stroke-width="1.5" />
    <line id="red-slanted-up" x1="0" y1="345.74609" x2="257.83321" y2="0.13979534"
          stroke="red" stroke-width="1.5" />
    <circle id="point-P" cx="74" cy="209" r="6" stroke="white" stroke-width="0.5" fill="black" />
    <circle id="point-R" cx="79" cy="240" r="6" stroke="white" stroke-width="0.5" fill="black" />
    <circle id="point-Q" cx="136" cy="163" r="6" stroke="white" stroke-width="0.5" fill="black" />
    <circle id="point-PQ-neg" cx="172" cy="137" r="6" stroke="blue" stroke-width="1" fill="white" />
    <circle id="point-QR-neg" cx="202" cy="74" r="6" stroke="red" stroke-width="1" fill="white" />
    <circle id="point-PQR-neg" cx="122" cy="259" r="6" stroke="white" stroke-width="0.5" fill="purple" />
    <circle id="point-PQ" cx="172" cy="282" r="6" stroke="white" stroke-width="0.5" fill="blue" />
    <circle id="point-RQ" cx="202" cy="344" r="6" stroke="white" stroke-width="0.5" fill="red" />
</svg>